<svg width="30" height="30" viewBox="0 0 30 30" fill="none" xmlns="http://www.w3.org/2000/svg">
<g clip-path="url(#clip0_275_118)">
<path d="M3.21415 12.8594H5.357C5.64116 12.8594 5.91369 12.9723 6.11462 13.1732C6.31555 13.3741 6.42843 13.6466 6.42843 13.9308V19.2879C6.42843 19.5721 6.31555 19.8446 6.11462 20.0456C5.91369 20.2465 5.64116 20.3594 5.357 20.3594H3.21415C2.64583 20.3594 2.10078 20.1336 1.69892 19.7317C1.29705 19.3299 1.07129 18.7848 1.07129 18.2165V15.0022C1.07129 14.4339 1.29705 13.8889 1.69892 13.487C2.10078 13.0851 2.64583 12.8594 3.21415 12.8594V12.8594Z" stroke="white" stroke-width="2" stroke-linecap="round" stroke-linejoin="round"/>
<path d="M26.7859 20.3594H24.643C24.3588 20.3594 24.0863 20.2465 23.8854 20.0456C23.6844 19.8446 23.5716 19.5721 23.5716 19.2879V13.9308C23.5716 13.6466 23.6844 13.3741 23.8854 13.1732C24.0863 12.9723 24.3588 12.8594 24.643 12.8594H26.7859C27.3542 12.8594 27.8992 13.0851 28.3011 13.487C28.7029 13.8889 28.9287 14.4339 28.9287 15.0022V18.2165C28.9287 18.7848 28.7029 19.3299 28.3011 19.7317C27.8992 20.1336 27.3542 20.3594 26.7859 20.3594V20.3594Z" stroke="white" stroke-width="2" stroke-linecap="round" stroke-linejoin="round"/>
<path d="M20.3574 26.2522C21.4941 26.2522 22.5842 25.8007 23.3879 24.997C24.1916 24.1932 24.6431 23.1032 24.6431 21.9665V20.3594" stroke="white" stroke-width="2" stroke-linecap="round" stroke-linejoin="round"/>
<path d="M17.678 23.5723C18.3884 23.5723 19.0697 23.8545 19.572 24.3568C20.0744 24.8591 20.3566 25.5404 20.3566 26.2508C20.3566 26.9612 20.0744 27.6425 19.572 28.1449C19.0697 28.6472 18.3884 28.9294 17.678 28.9294H14.4637C13.7533 28.9294 13.072 28.6472 12.5697 28.1449C12.0674 27.6425 11.7852 26.9612 11.7852 26.2508C11.7852 25.5404 12.0674 24.8591 12.5697 24.3568C13.072 23.8545 13.7533 23.5723 14.4637 23.5723H17.678Z" stroke="white" stroke-width="2" stroke-linecap="round" stroke-linejoin="round"/>
<path d="M5.35742 12.858V10.7151C5.35742 8.15768 6.37336 5.70498 8.18175 3.89659C9.99014 2.08821 12.4428 1.07227 15.0003 1.07227C17.5577 1.07227 20.0104 2.08821 21.8188 3.89659C23.6272 5.70498 24.6431 8.15768 24.6431 10.7151V12.858" stroke="white" stroke-width="2" stroke-linecap="round" stroke-linejoin="round"/>
<path d="M11.7852 8.57227V11.7866" stroke="white" stroke-width="2" stroke-linecap="round" stroke-linejoin="round"/>
<path d="M18.2139 8.57227V11.7866" stroke="white" stroke-width="2" stroke-linecap="round" stroke-linejoin="round"/>
<path d="M11.7852 16.0723C11.7852 18.9223 18.2137 18.9223 18.2137 16.0723" stroke="white" stroke-width="2" stroke-linecap="round" stroke-linejoin="round"/>
</g>
<defs>
<clipPath id="clip0_275_118">
<rect width="30" height="30" fill="white"/>
</clipPath>
</defs>
</svg>
